<svg id="my-svg" width="100%" xmlns="http://www.w3.org/2000/svg" xmlns:xlink="http://www.w3.org/1999/xlink" class="flowchart" style="max-width: 1164.47px; background-color: white;" viewBox="4 4 1164.46875 267.5" role="graphics-document document" aria-roledescription="flowchart-v2"><style>#my-svg{font-family:"trebuchet ms",verdana,arial,sans-serif;font-size:16px;fill:#333;}@keyframes edge-animation-frame{from{stroke-dashoffset:0;}}@keyframes dash{to{stroke-dashoffset:0;}}#my-svg .edge-animation-slow{stroke-dasharray:9,5!important;stroke-dashoffset:900;animation:dash 50s linear infinite;stroke-linecap:round;}#my-svg .edge-animation-fast{stroke-dasharray:9,5!important;stroke-dashoffset:900;animation:dash 20s linear infinite;stroke-linecap:round;}#my-svg .error-icon{fill:#552222;}#my-svg .error-text{fill:#552222;stroke:#552222;}#my-svg .edge-thickness-normal{stroke-width:1px;}#my-svg .edge-thickness-thick{stroke-width:3.5px;}#my-svg .edge-pattern-solid{stroke-dasharray:0;}#my-svg .edge-thickness-invisible{stroke-width:0;fill:none;}#my-svg .edge-pattern-dashed{stroke-dasharray:3;}#my-svg .edge-pattern-dotted{stroke-dasharray:2;}#my-svg .marker{fill:#333333;stroke:#333333;}#my-svg .marker.cross{stroke:#333333;}#my-svg svg{font-family:"trebuchet ms",verdana,arial,sans-serif;font-size:16px;}#my-svg p{margin:0;}#my-svg .label{font-family:"trebuchet ms",verdana,arial,sans-serif;color:#333;}#my-svg .cluster-label text{fill:#333;}#my-svg .cluster-label span{color:#333;}#my-svg .cluster-label span p{background-color:transparent;}#my-svg .label text,#my-svg span{fill:#333;color:#333;}#my-svg .node rect,#my-svg .node circle,#my-svg .node ellipse,#my-svg .node polygon,#my-svg .node path{fill:#ECECFF;stroke:#9370DB;stroke-width:1px;}#my-svg .rough-node .label text,#my-svg .node .label text,#my-svg .image-shape .label,#my-svg .icon-shape .label{text-anchor:middle;}#my-svg .node .katex path{fill:#000;stroke:#000;stroke-width:1px;}#my-svg .rough-node .label,#my-svg .node .label,#my-svg .image-shape .label,#my-svg .icon-shape .label{text-align:center;}#my-svg .node.clickable{cursor:pointer;}#my-svg .root .anchor path{fill:#333333!important;stroke-width:0;stroke:#333333;}#my-svg .arrowheadPath{fill:#333333;}#my-svg .edgePath .path{stroke:#333333;stroke-width:2.0px;}#my-svg .flowchart-link{stroke:#333333;fill:none;}#my-svg .edgeLabel{background-color:rgba(232,232,232, 0.8);text-align:center;}#my-svg .edgeLabel p{background-color:rgba(232,232,232, 0.8);}#my-svg .edgeLabel rect{opacity:0.5;background-color:rgba(232,232,232, 0.8);fill:rgba(232,232,232, 0.8);}#my-svg .labelBkg{background-color:rgba(232, 232, 232, 0.5);}#my-svg .cluster rect{fill:#ffffde;stroke:#aaaa33;stroke-width:1px;}#my-svg .cluster text{fill:#333;}#my-svg .cluster span{color:#333;}#my-svg div.mermaidTooltip{position:absolute;text-align:center;max-width:200px;padding:2px;font-family:"trebuchet ms",verdana,arial,sans-serif;font-size:12px;background:hsl(80, 100%, 96.2745098039%);border:1px solid #aaaa33;border-radius:2px;pointer-events:none;z-index:100;}#my-svg .flowchartTitleText{text-anchor:middle;font-size:18px;fill:#333;}#my-svg rect.text{fill:none;stroke-width:0;}#my-svg .icon-shape,#my-svg .image-shape{background-color:rgba(232,232,232, 0.8);text-align:center;}#my-svg .icon-shape p,#my-svg .image-shape p{background-color:rgba(232,232,232, 0.8);padding:2px;}#my-svg .icon-shape rect,#my-svg .image-shape rect{opacity:0.5;background-color:rgba(232,232,232, 0.8);fill:rgba(232,232,232, 0.8);}#my-svg .label-icon{display:inline-block;height:1em;overflow:visible;vertical-align:-0.125em;}#my-svg .node .label-icon path{fill:currentColor;stroke:revert;stroke-width:revert;}#my-svg :root{--mermaid-font-family:"trebuchet ms",verdana,arial,sans-serif;}</style><g><marker id="my-svg_flowchart-v2-pointEnd" class="marker flowchart-v2" viewBox="0 0 10 10" refX="5" refY="5" markerUnits="userSpaceOnUse" markerWidth="8" markerHeight="8" orient="auto"><path d="M 0 0 L 10 5 L 0 10 z" class="arrowMarkerPath" style="stroke-width: 1; stroke-dasharray: 1, 0;"/></marker><marker id="my-svg_flowchart-v2-pointStart" class="marker flowchart-v2" viewBox="0 0 10 10" refX="4.5" refY="5" markerUnits="userSpaceOnUse" markerWidth="8" markerHeight="8" orient="auto"><path d="M 0 5 L 10 10 L 10 0 z" class="arrowMarkerPath" style="stroke-width: 1; stroke-dasharray: 1, 0;"/></marker><marker id="my-svg_flowchart-v2-circleEnd" class="marker flowchart-v2" viewBox="0 0 10 10" refX="11" refY="5" markerUnits="userSpaceOnUse" markerWidth="11" markerHeight="11" orient="auto"><circle cx="5" cy="5" r="5" class="arrowMarkerPath" style="stroke-width: 1; stroke-dasharray: 1, 0;"/></marker><marker id="my-svg_flowchart-v2-circleStart" class="marker flowchart-v2" viewBox="0 0 10 10" refX="-1" refY="5" markerUnits="userSpaceOnUse" markerWidth="11" markerHeight="11" orient="auto"><circle cx="5" cy="5" r="5" class="arrowMarkerPath" style="stroke-width: 1; stroke-dasharray: 1, 0;"/></marker><marker id="my-svg_flowchart-v2-crossEnd" class="marker cross flowchart-v2" viewBox="0 0 11 11" refX="12" refY="5.2" markerUnits="userSpaceOnUse" markerWidth="11" markerHeight="11" orient="auto"><path d="M 1,1 l 9,9 M 10,1 l -9,9" class="arrowMarkerPath" style="stroke-width: 2; stroke-dasharray: 1, 0;"/></marker><marker id="my-svg_flowchart-v2-crossStart" class="marker cross flowchart-v2" viewBox="0 0 11 11" refX="-1" refY="5.2" markerUnits="userSpaceOnUse" markerWidth="11" markerHeight="11" orient="auto"><path d="M 1,1 l 9,9 M 10,1 l -9,9" class="arrowMarkerPath" style="stroke-width: 2; stroke-dasharray: 1, 0;"/></marker></g><g class="subgraphs"/><g class="nodes"><g class="node default" id="flowchart-UI-0" transform="translate(533.8125, 99)"><rect class="basic label-container" style="" x="-101.890625" y="-27" width="203.78125" height="54"/><g class="label" style="" transform="translate(-71.890625, -12)"><rect/><foreignObject width="143.78125" height="24"><div xmlns="http://www.w3.org/1999/xhtml" style="display: table-cell; white-space: nowrap; line-height: 1.5; max-width: 200px; text-align: center;"><span class="nodeLabel"><p>Web UI / Application</p></span></div></foreignObject></g></g><g class="node default" id="flowchart-CTRL-1" transform="translate(1030.46875, 82)"><rect class="basic label-container" style="" x="-130" y="-51" width="260" height="102"/><g class="label" style="" transform="translate(-100, -36)"><rect/><foreignObject width="200" height="72"><div xmlns="http://www.w3.org/1999/xhtml" style="display: table; white-space: break-spaces; line-height: 1.5; max-width: 200px; text-align: center; width: 200px;"><span class="nodeLabel"><p>Control Abstraction<br />(command model + ordering)</p></span></div></foreignObject></g></g><g class="node default" id="flowchart-DRV-2" transform="translate(92.8125, 224.5)"><rect class="basic label-container" style="" x="-80.8125" y="-39" width="161.625" height="78"/><g class="label" style="" transform="translate(-50.8125, -24)"><rect/><foreignObject width="101.625" height="48"><div xmlns="http://www.w3.org/1999/xhtml" style="display: table-cell; white-space: nowrap; line-height: 1.5; max-width: 200px; text-align: center;"><span class="nodeLabel"><p>SDR Driver<br />(WASM or JS)</p></span></div></foreignObject></g></g><g class="node default" id="flowchart-USB-3" transform="translate(521.3515625, 208)"><rect class="basic label-container" style="" x="-89.4296875" y="-27" width="178.859375" height="54"/><g class="label" style="" transform="translate(-59.4296875, -12)"><rect/><foreignObject width="118.859375" height="24"><div xmlns="http://www.w3.org/1999/xhtml" style="display: table-cell; white-space: nowrap; line-height: 1.5; max-width: 200px; text-align: center;"><span class="nodeLabel"><p>WebUSB Device</p></span></div></foreignObject></g></g></g><g class="edges edgePaths"><path d="M635.703,99L896.469,99" id="L_UI_CTRL_0_0" class="edge-thickness-normal edge-pattern-solid edge-thickness-normal edge-pattern-solid flowchart-link" style=";" data-edge="true" data-et="edge" data-id="L_UI_CTRL_0_0" data-points="W3sieCI6NjM1LjcwMzEyNSwieSI6OTl9LHsieCI6OTAwLjQ2ODc1LCJ5Ijo5OX1d" marker-end="url(#my-svg_flowchart-v2-pointEnd)"/><path d="M900.469,65L898.385,65C896.302,65,892.135,65,889.581,64.638C887.026,64.276,886.083,63.552,885.25,62.719C884.416,61.886,883.693,60.943,883.331,55.388C882.969,49.833,882.969,39.667,882.607,34.112C882.245,28.557,881.521,27.614,880.688,26.781C879.854,25.948,878.912,25.224,860.126,24.862C841.341,24.5,804.714,24.5,713.223,24.5C621.732,24.5,475.378,24.5,380.051,24.5C284.724,24.5,240.424,24.5,217.803,24.862C195.182,25.224,194.239,25.948,193.406,26.781C192.573,27.614,191.849,28.557,191.487,56.362C191.125,84.167,191.125,138.833,190.763,166.638C190.401,194.443,189.677,195.386,188.844,196.219C188.011,197.052,187.068,197.776,185.18,198.138C183.292,198.5,180.458,198.5,179.042,198.5L177.625,198.5" id="L_CTRL_DRV_0_0" class="edge-thickness-normal edge-pattern-solid edge-thickness-normal edge-pattern-solid flowchart-link" style=";" data-edge="true" data-et="edge" data-id="L_CTRL_DRV_0_0" data-points="W3sieCI6OTAwLjQ2ODc1LCJ5Ijo2NX0seyJ4Ijo4ODIuOTY4NzUsInkiOjY1fSx7IngiOjg4Mi45Njg3NSwieSI6MjQuNX0seyJ4Ijo3NjguMDg1OTM3NSwieSI6MjQuNX0seyJ4IjozMjkuMDIzNDM3NSwieSI6MjQuNX0seyJ4IjoxOTEuMTI1LCJ5IjoyNC41fSx7IngiOjE5MS4xMjUsInkiOjE5OC41fSx7IngiOjE3My42MjUsInkiOjE5OC41fV0=" marker-end="url(#my-svg_flowchart-v2-pointEnd)"/><path d="M173.625,250.5L212.924,250.5C252.224,250.5,330.823,250.5,370.594,250.138C410.365,249.776,411.307,249.052,412.141,248.219C412.974,247.386,413.698,246.443,414.06,242.805C414.422,239.167,414.422,232.833,414.784,229.195C415.146,225.557,415.87,224.614,416.703,223.781C417.536,222.948,418.479,222.224,420.367,221.862C422.255,221.5,425.089,221.5,426.505,221.5L427.922,221.5" id="L_DRV_USB_0_0" class="edge-thickness-normal edge-pattern-solid edge-thickness-normal edge-pattern-solid flowchart-link" style=";" data-edge="true" data-et="edge" data-id="L_DRV_USB_0_0" data-points="W3sieCI6MTczLjYyNSwieSI6MjUwLjV9LHsieCI6NDE0LjQyMTg3NSwieSI6MjUwLjV9LHsieCI6NDE0LjQyMTg3NSwieSI6MjIxLjV9LHsieCI6NDMxLjkyMTg3NSwieSI6MjIxLjV9XQ==" marker-end="url(#my-svg_flowchart-v2-pointEnd)"/><path d="M431.922,208L401.372,208C370.823,208,309.724,208,278.703,208.362C247.682,208.724,246.739,209.448,245.906,210.281C245.073,211.114,244.349,212.057,243.987,215.779C243.625,219.5,243.625,226,243.263,229.721C242.901,233.443,242.177,234.386,241.344,235.219C240.511,236.052,239.568,236.776,228.93,237.138C218.292,237.5,197.958,237.5,187.792,237.5L177.625,237.5" id="L_USB_DRV_0_0" class="edge-thickness-normal edge-pattern-solid edge-thickness-normal edge-pattern-solid flowchart-link" style=";" data-edge="true" data-et="edge" data-id="L_USB_DRV_0_0" data-points="W3sieCI6NDMxLjkyMTg3NSwieSI6MjA4fSx7IngiOjI0My42MjUsInkiOjIwOH0seyJ4IjoyNDMuNjI1LCJ5IjoyMzcuNX0seyJ4IjoxNzMuNjI1LCJ5IjoyMzcuNX1d" marker-end="url(#my-svg_flowchart-v2-pointEnd)"/><path d="M173.625,224.5L181.542,224.5C189.458,224.5,205.292,224.5,213.68,224.138C222.068,223.776,223.011,223.052,223.844,222.219C224.677,221.386,225.401,220.443,225.763,209.805C226.125,199.167,226.125,178.833,226.487,168.195C226.849,157.557,227.573,156.614,228.406,155.781C229.239,154.948,230.182,154.224,260.37,153.862C290.557,153.5,349.99,153.5,380.177,153.862C410.365,154.224,411.307,154.948,412.141,155.781C412.974,156.614,413.698,157.557,414.06,163.195C414.422,168.833,414.422,179.167,414.784,184.805C415.146,190.443,415.87,191.386,416.703,192.219C417.536,193.052,418.479,193.776,420.367,194.138C422.255,194.5,425.089,194.5,426.505,194.5L427.922,194.5" id="L_DRV_USB_2_0" class="edge-thickness-normal edge-pattern-solid edge-thickness-normal edge-pattern-solid flowchart-link" style=";" data-edge="true" data-et="edge" data-id="L_DRV_USB_2_0" data-points="W3sieCI6MTczLjYyNSwieSI6MjI0LjV9LHsieCI6MjI2LjEyNSwieSI6MjI0LjV9LHsieCI6MjI2LjEyNSwieSI6MTUzLjV9LHsieCI6NDE0LjQyMTg3NSwieSI6MTUzLjV9LHsieCI6NDE0LjQyMTg3NSwieSI6MTk0LjV9LHsieCI6NDMxLjkyMTg3NSwieSI6MTk0LjV9XQ==" marker-end="url(#my-svg_flowchart-v2-pointEnd)"/><path d="M173.625,211.5L178.625,211.5C183.625,211.5,193.625,211.5,199.096,211.138C204.568,210.776,205.511,210.052,206.344,209.219C207.177,208.386,207.901,207.443,208.263,189.888C208.625,172.333,208.625,138.167,208.987,120.612C209.349,103.057,210.073,102.114,210.906,101.281C211.739,100.448,212.682,99.724,248.87,99.362C285.057,99,356.49,99,392.206,99L427.922,99" id="L_DRV_UI_0_0" class="edge-thickness-normal edge-pattern-solid edge-thickness-normal edge-pattern-solid flowchart-link" style=";" data-edge="true" data-et="edge" data-id="L_DRV_UI_0_0" data-points="W3sieCI6MTczLjYyNSwieSI6MjExLjV9LHsieCI6MjA4LjYyNSwieSI6MjExLjV9LHsieCI6MjA4LjYyNSwieSI6OTl9LHsieCI6NDMxLjkyMTg3NSwieSI6OTl9XQ==" marker-end="url(#my-svg_flowchart-v2-pointEnd)"/></g><g class="edgeLabels"><g class="edgeLabel" transform="translate(768.0859375, 98.5)"><g class="label" data-id="L_UI_CTRL_0_0" transform="translate(-97.3828125, -24)"><foreignObject width="194.765625" height="48"><div xmlns="http://www.w3.org/1999/xhtml" class="labelBkg" style="display: table-cell; white-space: nowrap; line-height: 1.5; max-width: 200px; text-align: center;"><span class="edgeLabel"><p>high-level requests<br />(req_method / req_params)</p></span></div></foreignObject></g></g><g class="edgeLabel" transform="translate(533.8125, 24)"><g class="label" data-id="L_CTRL_DRV_0_0" transform="translate(-29.796875, -12)"><foreignObject width="59.59375" height="24"><div xmlns="http://www.w3.org/1999/xhtml" class="labelBkg" style="display: table-cell; white-space: nowrap; line-height: 1.5; max-width: 200px; text-align: center;"><span class="edgeLabel"><p>dispatch</p></span></div></foreignObject></g></g><g class="edgeLabel" transform="translate(329.0234375, 250)"><g class="label" data-id="L_DRV_USB_0_0" transform="translate(-57.359375, -12)"><foreignObject width="114.71875" height="24"><div xmlns="http://www.w3.org/1999/xhtml" class="labelBkg" style="display: table-cell; white-space: nowrap; line-height: 1.5; max-width: 200px; text-align: center;"><span class="edgeLabel"><p>control transfers</p></span></div></foreignObject></g></g><g class="edgeLabel" transform="translate(329.0234375, 207.5)"><g class="label" data-id="L_USB_DRV_0_0" transform="translate(-51.578125, -12)"><foreignObject width="103.15625" height="24"><div xmlns="http://www.w3.org/1999/xhtml" class="labelBkg" style="display: table-cell; white-space: nowrap; line-height: 1.5; max-width: 200px; text-align: center;"><span class="edgeLabel"><p>status / replies</p></span></div></foreignObject></g></g><g class="edgeLabel" transform="translate(329.0234375, 153)"><g class="label" data-id="L_DRV_USB_2_0" transform="translate(-35.1171875, -24)"><foreignObject width="70.234375" height="48"><div xmlns="http://www.w3.org/1999/xhtml" class="labelBkg" style="display: table-cell; white-space: nowrap; line-height: 1.5; max-width: 200px; text-align: center;"><span class="edgeLabel"><p>IQ stream<br />(RX / TX)</p></span></div></foreignObject></g></g><g class="edgeLabel" transform="translate(329.0234375, 98.5)"><g class="label" data-id="L_DRV_UI_0_0" transform="translate(-67.8984375, -12)"><foreignObject width="135.796875" height="24"><div xmlns="http://www.w3.org/1999/xhtml" class="labelBkg" style="display: table-cell; white-space: nowrap; line-height: 1.5; max-width: 200px; text-align: center;"><span class="edgeLabel"><p>decoded IQ buffers</p></span></div></foreignObject></g></g></g></svg>